<svg width="148" height="50" viewBox="0 0 148 50" fill="none" xmlns="http://www.w3.org/2000/svg">
<g clip-path="url(#clip0_43_214)">
<path d="M4.70603 24.513C4.59443 24.6257 4.538 24.7852 4.538 24.9903V41.2227C4.57813 43.4814 4.6496 45.7502 4.75117 48.0291V48.214C4.75117 48.4609 4.67969 48.6559 4.538 48.7989C4.27342 49.1066 3.88219 49.3788 3.36306 49.6155C2.84393 49.851 2.311 49.97 1.76178 49.97C1.4972 49.97 1.28403 49.908 1.12101 49.7852C0.958001 49.6624 0.876495 49.5181 0.876495 49.3535C0.958001 48.1418 1.02948 46.9669 1.08967 45.8274C1.15111 44.688 1.19123 43.194 1.2113 41.3455V28.039C1.2113 26.0272 1.11976 24.2193 0.936684 22.6177V22.4949C0.936684 22.1872 1.06835 22.0327 1.33293 22.0327C1.45456 22.0327 1.55613 22.053 1.63764 22.0948L4.41386 23.2963C4.63706 23.3988 4.89161 23.4508 5.17625 23.4508H20.8254C21.1502 23.4508 21.4148 23.3178 21.6192 23.0507L22.0468 22.4961C22.1483 22.3733 22.2549 22.2391 22.3665 22.096C22.4781 21.953 22.5897 21.8238 22.7026 21.7112C22.8142 21.5985 22.9107 21.5415 22.9922 21.5415C23.1339 21.5415 23.5665 21.8238 24.2888 22.3885C25.0111 22.9532 25.544 23.4406 25.8901 23.8521C25.9917 23.9964 26.0431 24.1091 26.0431 24.1914C26.0431 24.356 25.9515 24.4991 25.7685 24.6231C25.7271 24.6649 25.6869 24.6953 25.6468 24.7156C25.6054 24.7358 25.5653 24.7573 25.5252 24.7776C25.3421 24.8599 25.2054 24.9523 25.1139 25.0549C25.0224 25.1574 24.9772 25.3018 24.9772 25.4866V45.9389C24.9772 46.7605 24.8756 47.4328 24.6725 47.957C24.4694 48.4811 24.0669 48.9116 23.4675 49.2509C22.8668 49.5902 21.9878 49.8409 20.8292 50.0055H20.7376C20.3715 50.0055 20.1583 49.8105 20.0969 49.4206C19.9339 48.6191 19.6693 48.0443 19.3031 47.6962C18.6523 47.1834 17.7783 46.8137 16.6799 46.5871C16.2724 46.525 16.0692 46.4225 16.0692 46.2794C16.0692 46.1769 16.2924 46.125 16.7401 46.125C18.794 46.2896 20.1571 46.3719 20.8279 46.3719C21.1126 46.3719 21.3107 46.3098 21.4223 46.187C21.5339 46.0642 21.5903 45.8692 21.5903 45.6021V24.9966C21.5903 24.7915 21.5339 24.632 21.4223 24.5193C21.3107 24.4066 21.1527 24.3497 20.9496 24.3497H5.17876C4.97562 24.3497 4.81763 24.4066 4.70603 24.5193V24.513ZM17.0147 30.9662L17.4724 30.3496C17.574 30.2268 17.6805 30.0875 17.7921 29.9343C17.9037 29.7799 18.0153 29.6419 18.1282 29.5191C18.2398 29.3963 18.3364 29.3342 18.4179 29.3342C18.5809 29.3342 18.9871 29.5912 19.6379 30.104C20.2887 30.618 20.7665 31.0586 21.0712 31.4283C21.1728 31.5309 21.2242 31.6436 21.2242 31.7676C21.2242 31.8917 21.1627 32.0044 21.0411 32.1069C20.8781 32.2095 20.685 32.2614 20.4618 32.2614H15.1238C14.9206 32.2614 14.7626 32.3184 14.651 32.4311C14.5394 32.5437 14.483 32.7033 14.483 32.9084V40.9784C14.483 41.1835 14.5382 41.343 14.651 41.4557C14.7626 41.5683 14.9206 41.6253 15.1238 41.6253H16.009C16.2122 41.6253 16.3702 41.5696 16.4818 41.4557C16.5934 41.3417 16.6498 41.1835 16.6498 40.9784V40.5783C16.6498 38.5044 16.5583 36.656 16.3752 35.0341V34.9113C16.3752 34.7265 16.4366 34.5884 16.5583 34.496C16.6799 34.4036 16.8529 34.3884 17.0774 34.4504C19.0912 34.943 20.0969 35.324 20.0969 35.5899C20.0969 35.652 20.0254 35.7241 19.8837 35.8052C19.5991 35.99 19.4561 36.247 19.4561 36.5749V38.2069C19.4962 40.2605 19.5477 41.8823 19.6091 43.0737V43.2586C19.6091 43.5054 19.5176 43.6903 19.3345 43.8131C19.09 44.0182 18.7552 44.1929 18.3276 44.3373C17.9 44.4816 17.4937 44.5525 17.1075 44.5525C16.883 44.5525 16.7213 44.4702 16.6197 44.3056C16.5583 44.2031 16.5282 44.1005 16.5282 43.998C16.5282 43.9157 16.5482 43.7726 16.5896 43.5662L16.6511 43.1965V43.1661C16.6511 42.961 16.5946 42.8015 16.483 42.6888C16.3714 42.5761 16.2134 42.5192 16.0103 42.5192H9.93997C9.73683 42.5192 9.57884 42.5761 9.46724 42.6888C9.35564 42.8015 9.29921 42.961 9.29921 43.1661V43.1965C9.31927 43.4016 9.3293 43.6384 9.3293 43.9055V44.1524C9.3293 44.3993 9.25783 44.574 9.11613 44.6766C8.87161 44.8412 8.55186 44.9842 8.15562 45.1083C7.75937 45.2324 7.37817 45.2931 7.01202 45.2931C6.7675 45.2931 6.58944 45.2311 6.47784 45.1083C6.36624 44.9855 6.30982 44.8412 6.30982 44.6766C6.39132 43.8967 6.45151 42.8901 6.49289 41.6582V39.8414C6.49289 37.9322 6.41139 36.3306 6.24837 35.0366V34.9746C6.24837 34.6049 6.41139 34.4201 6.73616 34.4201C6.83773 34.4201 6.91923 34.4302 6.98067 34.4504C8.93306 34.943 9.90862 35.324 9.90862 35.5899C9.90862 35.652 9.84718 35.7241 9.72555 35.8052C9.4409 35.99 9.29795 36.247 9.29795 36.5749V40.9796C9.29795 41.1847 9.35313 41.3442 9.46598 41.4569C9.57758 41.5696 9.73558 41.6266 9.93872 41.6266H10.7325C10.9356 41.6266 11.0936 41.5709 11.2052 41.4569C11.3168 41.3442 11.3732 41.1847 11.3732 40.9796V32.9096C11.3732 32.7045 11.3168 32.545 11.2052 32.4323C11.0936 32.3196 10.9356 32.2627 10.7325 32.2627H9.39075C8.43524 32.2829 7.39698 32.3969 6.27972 32.602H6.12674C5.82203 32.602 5.60761 32.4589 5.48598 32.1702L5.36435 31.955C5.3029 31.8322 5.27281 31.7195 5.27281 31.6157C5.27281 31.308 5.47595 31.1738 5.88348 31.2156C6.5744 31.2777 7.62269 31.3283 9.02585 31.3701H13.2052C13.5714 31.3701 13.7846 31.2675 13.846 31.0624C14.0905 30.242 14.2937 29.3279 14.4567 28.3214C14.6197 27.3161 14.7212 26.3919 14.7614 25.5486C14.8015 25.1789 14.9745 24.9941 15.2805 24.9941C15.4021 24.9941 15.4937 25.0042 15.5551 25.0245C17.9953 25.7234 19.2154 26.2057 19.2154 26.4716C19.2154 26.5337 19.1238 26.6058 18.9408 26.6869L18.7878 26.7489C18.5232 26.8717 18.31 27.0363 18.147 27.2414C17.2316 28.4733 16.2862 29.5824 15.3106 30.5674C15.1676 30.7117 15.0974 30.8548 15.0974 30.9991C15.0974 31.1017 15.1476 31.189 15.2504 31.2612C15.352 31.3334 15.4836 31.3688 15.6467 31.3688H16.2573C16.5821 31.3688 16.8366 31.2359 17.0197 30.9687L17.0147 30.9662ZM7.61893 25.298C7.63899 25.2777 7.68037 25.2676 7.74056 25.2676C7.78069 25.2676 7.93367 25.3195 8.19825 25.422C9.4384 25.9145 10.3538 26.5058 10.9444 27.1933C11.5337 27.882 11.8297 28.5644 11.8297 29.2418C11.8297 29.7558 11.6717 30.1914 11.3569 30.5509C11.0409 30.9105 10.6497 31.0903 10.182 31.0903C9.79577 31.0903 9.43965 30.9675 9.11488 30.7206C8.89042 30.5357 8.75876 30.2686 8.71863 29.9192C8.65719 28.7075 8.32239 27.3832 7.71172 25.9462C7.54871 25.5562 7.51861 25.341 7.62018 25.2992L7.61893 25.298Z" fill="white"/>
<path d="M35.5479 46.7198C35.4363 46.8325 35.3799 46.992 35.3799 47.1971V48.0289C35.3799 48.172 35.2432 48.3518 34.9686 48.5683C34.694 48.7835 34.3379 48.9684 33.9015 49.1228C33.4639 49.2773 33.0212 49.3533 32.5748 49.3533C32.3102 49.3533 32.0971 49.2912 31.9341 49.1684C31.7711 49.0456 31.6895 48.9013 31.6895 48.7367C31.7711 47.525 31.8425 46.3501 31.9027 45.2094C31.9642 44.0699 32.0043 42.5759 32.0243 40.7275V28.9618C32.0243 26.95 31.9328 25.142 31.7497 23.5404V23.4176C31.7497 23.11 31.8814 22.9555 32.146 22.9555C32.2676 22.9555 32.3692 22.9758 32.4507 23.0175L35.3184 24.2494C35.5416 24.352 35.7962 24.4039 36.0808 24.4039H50.9977C51.3225 24.4039 51.5871 24.2811 51.7915 24.0342L52.2491 23.4176C52.3507 23.3151 52.4774 23.1707 52.6303 22.9859C52.7833 22.801 52.905 22.663 52.9965 22.5706C53.088 22.4782 53.1745 22.4326 53.2561 22.4326C53.4191 22.4326 53.8605 22.7251 54.5827 23.31C55.305 23.8949 55.8379 24.3938 56.184 24.804C56.2856 24.9065 56.337 25.0192 56.337 25.1433C56.337 25.2876 56.2555 25.4206 56.0925 25.5434L55.7878 25.6978C55.4417 25.8624 55.2686 26.1093 55.2686 26.4372V40.5755C55.3088 42.814 55.3802 45.0726 55.4818 47.3516V47.506C55.4818 47.7934 55.3802 47.9986 55.1771 48.1226C54.8109 48.3695 54.3583 48.5898 53.8191 48.7848C53.2799 48.9798 52.7871 49.0773 52.3394 49.0773C52.0548 49.0773 51.8617 48.995 51.7601 48.8304C51.6987 48.7481 51.6686 48.6455 51.6686 48.5227C51.6686 48.4404 51.6886 48.2961 51.73 48.091C51.73 48.0492 51.7501 47.8238 51.7915 47.4136V47.1984C51.7915 46.9933 51.735 46.8338 51.6234 46.7211C51.5118 46.6084 51.3538 46.5514 51.1507 46.5514H36.0194C35.8163 46.5514 35.6583 46.6084 35.5467 46.7211L35.5479 46.7198ZM41.5881 34.6769C41.6997 34.5642 41.7562 34.4047 41.7562 34.1996V25.9143C41.7562 25.7092 41.6997 25.5497 41.5881 25.437C41.4765 25.3243 41.3185 25.2674 41.1154 25.2674H36.0207C35.8175 25.2674 35.6595 25.3243 35.5479 25.437C35.4363 25.5497 35.3799 25.7092 35.3799 25.9143V34.1996C35.3799 34.4047 35.4351 34.5642 35.5479 34.6769C35.6595 34.7896 35.8175 34.8465 36.0207 34.8465H41.1154C41.3185 34.8465 41.4765 34.7908 41.5881 34.6769ZM41.5881 35.8784C41.4765 35.7657 41.3185 35.7087 41.1154 35.7087H36.0207C35.8175 35.7087 35.6595 35.7657 35.5479 35.8784C35.4363 35.9911 35.3799 36.1506 35.3799 36.3557V45.0106C35.3799 45.2157 35.4351 45.3752 35.5479 45.4879C35.6595 45.6006 35.8175 45.6576 36.0207 45.6576H41.1154C41.3185 45.6576 41.4765 45.6019 41.5881 45.4879C41.6997 45.374 41.7562 45.2157 41.7562 45.0106V36.3557C41.7562 36.1506 41.6997 35.9911 41.5881 35.8784ZM51.6234 34.6769C51.735 34.5642 51.7915 34.4047 51.7915 34.1996V25.9143C51.7915 25.7092 51.735 25.5497 51.6234 25.437C51.5118 25.3243 51.3538 25.2674 51.1507 25.2674H45.8127C45.6095 25.2674 45.4515 25.3243 45.3399 25.437C45.2283 25.5497 45.1719 25.7092 45.1719 25.9143V34.1996C45.1719 34.4047 45.2271 34.5642 45.3399 34.6769C45.4515 34.7896 45.6095 34.8465 45.8127 34.8465H51.1507C51.3538 34.8465 51.5118 34.7908 51.6234 34.6769ZM45.3399 35.8784C45.2283 35.9911 45.1719 36.1506 45.1719 36.3557V45.0106C45.1719 45.2157 45.2271 45.3752 45.3399 45.4879C45.4515 45.6006 45.6095 45.6576 45.8127 45.6576H51.1507C51.3538 45.6576 51.5118 45.6019 51.6234 45.4879C51.735 45.3752 51.7915 45.2157 51.7915 45.0106V36.3557C51.7915 36.1506 51.735 35.9911 51.6234 35.8784C51.5118 35.7657 51.3538 35.7087 51.1507 35.7087H45.8127C45.6095 35.7087 45.4515 35.7657 45.3399 35.8784Z" fill="white"/>
<path d="M79.2465 25.4827L79.9487 24.4661C80.0302 24.3432 80.1719 24.1432 80.3763 23.8659C80.5794 23.5887 80.7424 23.3836 80.8641 23.2494C80.9857 23.1164 81.0873 23.0493 81.1688 23.0493C81.3318 23.0493 81.8647 23.4241 82.7701 24.1736C83.6741 24.9231 84.3111 25.5131 84.6773 25.9448C84.7789 26.0474 84.8303 26.1601 84.8303 26.2841C84.8303 26.4082 84.7688 26.5209 84.6472 26.6235C84.4842 26.726 84.281 26.7779 84.0365 26.7779H75.343C75.1398 26.7779 74.9818 26.8349 74.8702 26.9476C74.7586 27.0603 74.7022 27.2198 74.7022 27.4249V45.9058C74.7022 46.1109 74.7574 46.2705 74.8702 46.3832C74.9818 46.4958 75.1398 46.5528 75.343 46.5528H80.2233C80.5481 46.5528 80.8026 46.4199 80.9857 46.1527L81.718 45.1361C81.8196 44.993 81.9663 44.7816 82.1606 44.5043C82.3537 44.227 82.5117 44.0219 82.6334 43.8877C82.755 43.7548 82.8566 43.6877 82.9381 43.6877C83.1011 43.6877 83.634 44.0624 84.5394 44.812C85.4435 45.5615 86.0805 46.1515 86.4454 46.5832C86.567 46.706 86.6284 46.8301 86.6284 46.9529C86.6284 47.0554 86.567 47.158 86.4454 47.2605C86.2823 47.3631 86.0692 47.415 85.8046 47.415H64.2983C63.0569 47.4353 61.7152 47.5479 60.2719 47.7543H60.0888C59.8041 47.7543 59.601 47.6201 59.4781 47.3542L59.3565 47.139C59.295 47.0162 59.265 46.9035 59.265 46.7997C59.265 46.492 59.4681 46.3578 59.8756 46.3996C60.5665 46.4617 61.6148 46.5123 63.018 46.5541H70.3084C70.5115 46.5541 70.6695 46.4984 70.7811 46.3844C70.8927 46.2717 70.9492 46.1122 70.9492 45.9071V27.4262C70.9492 27.221 70.8927 27.0615 70.7811 26.9488C70.6695 26.8362 70.5115 26.7792 70.3084 26.7792H66.2507C65.0093 26.7994 63.6675 26.9134 62.2243 27.1185H62.0412C61.7565 27.1185 61.5534 26.9856 61.4305 26.7184L61.3089 26.4715C61.2474 26.3487 61.2173 26.2246 61.2173 26.1018C61.2173 25.979 61.2675 25.8815 61.3703 25.8094C61.4719 25.7372 61.6148 25.7119 61.7979 25.7321C62.4888 25.7942 63.5371 25.8448 64.9403 25.8866H78.4853C78.8101 25.8866 79.0647 25.7537 79.2477 25.4865L79.2465 25.4827Z" fill="white"/>
<path d="M112.529 24.8974L113.078 24.0656C113.179 23.9226 113.311 23.7263 113.474 23.4807C113.637 23.2338 113.769 23.0553 113.87 22.9413C113.972 22.8287 114.063 22.7717 114.145 22.7717C114.308 22.7717 114.756 23.1059 115.488 23.7732C116.22 24.4404 116.738 24.9797 117.044 25.3899C117.146 25.5343 117.197 25.6571 117.197 25.7596C117.197 25.8622 117.146 25.9647 117.044 26.0673C116.881 26.1699 116.668 26.2218 116.403 26.2218H115.092C114.725 26.2218 114.471 26.3864 114.329 26.7143C113.597 28.3779 112.661 29.8149 111.523 31.0265C111.401 31.1709 111.34 31.3139 111.34 31.4583C111.34 31.6634 111.461 31.8178 111.706 31.9204C113.089 32.4344 114.848 32.8345 116.984 33.1219C117.411 33.1839 117.625 33.2662 117.625 33.3688C117.604 33.4511 117.538 33.5435 117.426 33.646C117.315 33.7486 117.248 33.8106 117.228 33.8309C116.659 34.3449 116.283 35.1755 116.1 36.3263C115.998 36.7986 115.744 36.9733 115.337 36.8505C112.794 36.0908 110.762 35.0641 109.236 33.7701C109.093 33.6473 108.931 33.5853 108.748 33.5853C108.626 33.5853 108.493 33.6271 108.352 33.7081C107.944 33.9752 107.558 34.212 107.193 34.4171C106.99 34.5399 106.888 34.6741 106.888 34.8172C106.888 35.0223 107.091 35.1362 107.499 35.1565C108.942 35.3008 109.665 35.4641 109.665 35.649C109.665 35.711 109.583 35.7933 109.42 35.8959L109.359 35.9579C109.074 36.1428 108.921 36.3896 108.901 36.6973L108.718 38.0216V38.1761C108.718 38.5458 108.911 38.7306 109.297 38.7306H111.341C111.646 38.7306 111.9 38.6179 112.103 38.3913L112.561 37.8988C112.683 37.7963 112.851 37.6317 113.064 37.4063C113.277 37.1809 113.445 37.067 113.567 37.067C113.73 37.067 114.121 37.3189 114.742 37.8216C115.362 38.3255 115.835 38.7711 116.16 39.1611C116.261 39.3054 116.313 39.4282 116.313 39.5308C116.313 39.7156 116.211 39.8498 116.008 39.9309L115.825 40.0233C115.642 40.0853 115.505 40.1727 115.414 40.2854C115.322 40.3981 115.266 40.5474 115.246 40.7323C115.083 43.1151 114.823 44.9572 114.468 46.2613C114.112 47.5653 113.609 48.463 112.959 48.9567C112.226 49.5113 111.281 49.8189 110.122 49.881H110.031C109.685 49.881 109.491 49.6759 109.451 49.2644C109.41 48.5453 109.238 48.0122 108.932 47.6628C108.586 47.2729 107.965 46.9652 107.071 46.7386C106.705 46.6158 106.522 46.4917 106.522 46.3689C106.522 46.2258 106.745 46.1739 107.193 46.2144C108.495 46.2967 109.39 46.3372 109.878 46.3372C110.122 46.3372 110.309 46.322 110.442 46.2916C110.574 46.2613 110.69 46.2043 110.793 46.122C111.342 45.6295 111.739 43.6886 111.983 40.3006V40.1778C111.983 39.7878 111.78 39.5928 111.372 39.5928H108.992C108.626 39.5928 108.392 39.7777 108.291 40.1474C107.722 42.3453 106.715 44.2545 105.272 45.8764C103.827 47.4982 101.652 48.7922 98.7439 49.7569C98.3778 49.8797 98.1533 49.8797 98.0731 49.7569C98.053 49.7367 98.043 49.705 98.043 49.6645C98.043 49.5619 98.206 49.4075 98.5308 49.2024C100.382 48.1756 101.81 46.9082 102.817 45.3991C103.824 43.8899 104.53 42.1908 104.937 40.3018C104.957 40.2613 104.967 40.1891 104.967 40.0866C104.967 39.7587 104.774 39.5941 104.388 39.5941H103.442C102.609 39.6359 101.815 39.7384 101.062 39.9017L100.879 39.9321C100.595 39.9321 100.38 39.7891 100.239 39.5004L100.147 39.3156C100.086 39.1927 100.056 39.0687 100.056 38.9459C100.056 38.823 100.106 38.7256 100.209 38.6534C100.31 38.5812 100.453 38.5559 100.636 38.5762C101.247 38.6382 102.181 38.6888 103.442 38.7306H104.602C105.009 38.7306 105.232 38.5255 105.273 38.114C105.375 37.4569 105.436 36.7999 105.456 36.1428V36.0807C105.456 35.9161 105.415 35.7883 105.335 35.6958C105.253 35.6034 105.152 35.5578 105.03 35.5578C104.908 35.5578 104.805 35.5781 104.725 35.6199C103.485 36.1744 102.122 36.6365 100.637 37.0062C100.536 37.048 100.403 37.0683 100.241 37.0683C100.079 37.0683 99.9866 37.0277 99.9665 36.9455V36.9151C99.9665 36.853 100.012 36.7872 100.103 36.715C100.195 36.6429 100.321 36.577 100.484 36.515C103.026 35.4274 105.182 34.0195 106.952 32.2951C107.115 32.1306 107.197 31.9774 107.197 31.833C107.197 31.6684 107.135 31.5152 107.014 31.3709C106.423 30.529 105.854 29.5338 105.306 28.383C105.184 28.1361 105.031 28.0133 104.848 28.0133C104.747 28.0133 104.614 28.0753 104.452 28.1981C103.678 28.8552 103.007 29.3794 102.438 29.7693C102.235 29.9136 102.133 30.0668 102.133 30.2314C102.133 30.396 102.215 30.5505 102.378 30.6936C103.333 31.5773 103.811 32.1521 103.811 32.418C103.811 32.5408 103.7 32.6231 103.475 32.6648L103.353 32.6952C103.049 32.7573 102.804 32.8801 102.621 33.0649C102.173 33.5574 101.629 34.0613 100.989 34.5741C100.348 35.0881 99.722 35.5186 99.1126 35.868C98.828 36.0731 98.6349 36.125 98.5333 36.0225C98.4919 35.982 98.4718 35.9301 98.4718 35.868C98.4718 35.8275 98.512 35.6629 98.5935 35.3755C99.0411 34.1031 99.3258 33.2612 99.4474 32.8497C99.4675 32.7876 99.4775 32.7167 99.4775 32.6345C99.4775 32.3065 99.2844 32.1419 98.8982 32.1419H98.5935C98.3903 32.1419 98.2323 32.1989 98.1207 32.3116C98.0091 32.4243 97.9527 32.5838 97.9527 32.7889V45.5713C97.9527 46.8449 97.7182 47.8299 97.2505 48.5275C96.7828 49.2252 95.8373 49.6771 94.4141 49.8822L94.231 49.9126C93.9263 49.9126 93.7432 49.7075 93.6818 49.2961C93.5802 48.4541 93.3871 47.8274 93.1025 47.4172C92.7163 46.9247 92.0655 46.5753 91.1501 46.3701C90.7639 46.2676 90.5708 46.1549 90.5708 46.0308C90.5708 45.9903 90.6322 45.9485 90.7538 45.908C90.8755 45.8675 91.0385 45.8574 91.2416 45.8776C92.7263 45.9802 93.6818 46.0321 94.1094 46.0321C94.3539 46.0321 94.5207 45.9865 94.6122 45.8941C94.7038 45.8017 94.7489 45.6637 94.7489 45.4788V39.8119C94.7489 39.4422 94.6473 39.2573 94.4442 39.2573C94.2812 39.2573 94.1282 39.3599 93.9865 39.565C92.8479 41.1045 91.5764 42.4605 90.1733 43.6303C89.8686 43.8975 89.6541 43.9697 89.5325 43.8456C89.4911 43.8051 89.4711 43.7532 89.4711 43.6911C89.4711 43.5683 89.5526 43.3936 89.7156 43.167C90.651 41.8123 91.4849 40.2411 92.2172 38.4546C92.9495 36.6682 93.5489 34.7994 94.0166 32.8484L94.0467 32.6636C94.0467 32.499 93.9903 32.3711 93.8787 32.2787C93.7671 32.1863 93.6191 32.1407 93.436 32.1407H92.7652C92.1144 32.1825 91.4836 32.2749 90.8742 32.418C90.8128 32.4382 90.7313 32.4483 90.6297 32.4483C90.3852 32.4483 90.1921 32.3154 90.0504 32.0483L89.9288 31.833C89.8673 31.7102 89.8372 31.5975 89.8372 31.4937C89.8372 31.1861 90.0404 31.0519 90.4479 31.0936C91.1388 31.1557 92.1871 31.2063 93.5903 31.2481H95.1151C95.3997 31.2481 95.6129 31.2278 95.7558 31.1861C95.8975 31.1455 95.9289 31.0835 95.8473 31.0012C95.7658 30.9189 95.6944 30.7961 95.6342 30.6315C95.3495 29.9959 94.952 29.3275 94.4442 28.6298C93.9351 27.9322 93.4072 27.2954 92.858 26.7206C92.7363 26.5775 92.6398 26.4535 92.5683 26.3509C92.4968 26.2483 92.4818 26.1762 92.5219 26.1357C92.6034 26.0952 92.6949 26.0736 92.7965 26.0736C92.9181 26.0736 93.0197 26.0838 93.1012 26.104C94.2799 26.2268 95.2981 26.4838 96.1521 26.8738C96.2737 26.9358 96.3853 26.9662 96.4881 26.9662C96.6912 26.9662 96.8643 26.8434 97.0072 26.5965L97.9226 24.748C97.9841 24.6252 98.0142 24.5126 98.0142 24.4087C98.0142 24.1213 97.8211 23.977 97.4348 23.977H95.421C94.1395 23.9973 92.7978 24.1112 91.3946 24.3163H91.2416C90.9369 24.3163 90.7125 24.1834 90.5708 23.9162L90.4491 23.701C90.3877 23.5782 90.3576 23.4541 90.3576 23.3313C90.3576 23.2085 90.4078 23.111 90.5106 23.0388C90.6122 22.9667 90.7551 22.9413 90.9382 22.9616C91.6291 23.0236 92.6774 23.0743 94.0806 23.1161H97.8022C98.107 23.1161 98.3615 23.0034 98.5646 22.7768L99.0838 22.1918C99.2054 22.069 99.3835 21.8791 99.6179 21.6221C99.8512 21.3651 100.029 21.2372 100.152 21.2372C100.294 21.2372 100.701 21.5664 101.372 22.2222C102.043 22.8793 102.541 23.4339 102.867 23.8858C102.948 23.9884 102.989 24.1011 102.989 24.2252C102.989 24.41 102.887 24.5328 102.684 24.5948C102.562 24.6366 102.459 24.6569 102.379 24.6569C102.053 24.7189 101.8 24.8215 101.617 24.9645C100.377 25.909 99.1766 26.7003 98.0167 27.3359C97.7922 27.4587 97.6806 27.6031 97.6806 27.7676C97.6806 27.8905 97.7421 28.0348 97.8637 28.1994C98.2298 28.6919 98.4129 29.1958 98.4129 29.7085C98.4129 30.058 98.3314 30.3758 98.1684 30.6632C98.0468 30.848 97.9853 30.9822 97.9853 31.0632C97.9853 31.1861 98.117 31.2481 98.3816 31.2481H99.0524C99.3571 31.2481 99.6117 31.1354 99.8148 30.9088L100.699 29.9542C100.983 29.6262 101.187 29.5224 101.31 29.6465L101.371 29.6769C101.513 29.6769 101.676 29.5224 101.859 29.2148C102.286 28.5577 102.652 27.8905 102.957 27.2131C103.323 26.4535 103.663 25.5393 103.979 24.472C104.294 23.4047 104.513 22.4286 104.635 21.5461C104.675 21.1967 104.838 21.022 105.123 21.022C105.244 21.022 105.346 21.0422 105.427 21.084C107.786 21.926 108.966 22.4805 108.966 22.7476C108.966 22.8097 108.875 22.8818 108.691 22.9629L108.538 23.0249C108.254 23.1477 108.039 23.3326 107.898 23.5795L107.348 24.5645C107.267 24.667 107.227 24.7911 107.227 24.9342C107.227 25.2013 107.41 25.3342 107.776 25.3342H111.772C112.097 25.3342 112.352 25.1912 112.535 24.9025L112.529 24.8974ZM110.515 26.6839C110.515 26.5408 110.463 26.4269 110.362 26.3446C110.26 26.2623 110.117 26.2218 109.934 26.2218H106.7C106.395 26.2218 106.131 26.3446 105.906 26.5915L105.845 26.6839C105.723 26.8282 105.662 26.9915 105.662 27.1764C105.662 27.3207 105.712 27.4537 105.815 27.5765C106.547 28.5425 107.31 29.3325 108.103 29.9478C108.266 30.0706 108.408 30.1327 108.531 30.1327C108.694 30.1327 108.856 30.02 109.019 29.7934C109.568 28.973 110.046 28.0272 110.452 26.9599C110.492 26.8371 110.513 26.7447 110.513 26.6826L110.515 26.6839Z" fill="white"/>
<path d="M142.424 25.4522L143.034 24.4976C143.136 24.333 143.279 24.1178 143.462 23.8506C143.645 23.5835 143.787 23.3885 143.89 23.2657C143.991 23.1429 144.083 23.0808 144.164 23.0808C144.306 23.0808 144.8 23.4455 145.644 24.1747C146.488 24.904 147.082 25.4839 147.428 25.9156C147.51 26.0181 147.55 26.1308 147.55 26.2549C147.55 26.3992 147.488 26.522 147.367 26.6246C147.204 26.7272 147.001 26.7791 146.756 26.7791H126.897C126.694 26.7791 126.536 26.836 126.425 26.9487C126.313 27.0614 126.257 27.2209 126.257 27.426V33.5868C126.257 35.7429 126.145 37.7041 125.921 39.4702C125.696 41.2364 125.183 43.0127 124.38 44.7992C123.576 46.5856 122.381 48.1669 120.795 49.5419C120.51 49.7673 120.317 49.8496 120.215 49.7888C120.174 49.747 120.154 49.6964 120.154 49.6343C120.154 49.552 120.215 49.3874 120.337 49.1418C121.414 47.068 122.116 44.789 122.442 42.3037C122.767 39.8197 122.93 36.914 122.93 33.5868V28.9972C122.93 27.6007 122.869 26.3169 122.747 25.1471V25.0851C122.747 24.7154 122.879 24.5305 123.143 24.5305C123.265 24.5305 123.366 24.5508 123.448 24.5925L126.437 25.732C126.66 25.8346 126.915 25.8865 127.2 25.8865H132.355C132.782 25.8865 132.995 25.6712 132.995 25.2395C132.954 23.7823 132.884 22.5807 132.782 21.6362V21.5742C132.782 21.3488 132.847 21.1893 132.98 21.0969C133.112 21.0045 133.29 20.9893 133.514 21.0501C135.915 21.5641 137.115 21.9642 137.115 22.2516C137.115 22.3339 137.043 22.4263 136.901 22.5288L136.78 22.6213C136.515 22.8264 136.383 23.0834 136.383 23.391V25.2395C136.383 25.4446 136.44 25.6041 136.552 25.7168C136.663 25.8295 136.821 25.8865 137.024 25.8865H141.661C141.986 25.8865 142.241 25.7434 142.424 25.4547V25.4522ZM141.508 38.6663L141.936 38.1117C142.038 37.9889 142.144 37.8547 142.256 37.7117C142.367 37.5686 142.479 37.4395 142.592 37.3268C142.703 37.2141 142.8 37.1571 142.881 37.1571C143.044 37.1571 143.441 37.3989 144.071 37.8813C144.702 38.3637 145.18 38.7904 145.505 39.16C145.606 39.3044 145.658 39.4171 145.658 39.4994C145.658 39.664 145.566 39.7969 145.383 39.8994L145.23 39.9919C145.047 40.0742 144.91 40.1666 144.819 40.2691C144.727 40.3717 144.681 40.516 144.681 40.7009V43.1039C144.742 45.4651 144.802 47.211 144.864 48.3404V48.4632C144.864 48.7709 144.752 48.9975 144.528 49.1406C143.796 49.5508 142.912 49.7571 141.873 49.7571C141.569 49.7571 141.364 49.6748 141.263 49.5102C141.201 49.428 141.171 49.3254 141.171 49.2026C141.171 49.1203 141.191 48.976 141.232 48.7709L141.294 48.2467V48.1239C141.294 47.9188 141.237 47.7593 141.126 47.6466C141.014 47.5339 140.856 47.4769 140.653 47.4769H131.319C131.116 47.4769 130.958 47.5022 130.846 47.5542C130.734 47.6048 130.678 47.6719 130.678 47.7542L130.708 48.2784V48.7405C130.708 49.0076 130.637 49.2026 130.495 49.3254C130.271 49.5102 129.951 49.6647 129.534 49.7875C129.117 49.9103 128.634 49.9724 128.085 49.9724C127.576 49.9724 127.323 49.7673 127.323 49.3558C127.404 48.4113 127.464 47.2402 127.506 45.8449V43.7509C127.506 41.7391 127.414 39.921 127.231 38.2991V38.1763C127.231 37.8687 127.363 37.7142 127.627 37.7142C127.667 37.7142 127.769 37.7344 127.932 37.7762L130.647 38.8853C130.87 38.9879 131.124 39.0398 131.409 39.0398H133.331C133.535 39.0398 133.693 38.9841 133.804 38.8701C133.916 38.7574 133.972 38.5979 133.972 38.3928V33.7729C133.972 31.699 133.881 29.8506 133.698 28.2287V28.1059C133.698 27.9211 133.759 27.7831 133.881 27.6906C134.002 27.5982 134.175 27.5729 134.4 27.6134C136.921 28.1477 138.183 28.5579 138.183 28.8453C138.183 28.9276 138.101 29.02 137.938 29.1226L137.847 29.1846C137.562 29.3695 137.419 29.6265 137.419 29.9544V32.0801C137.419 32.2852 137.476 32.4448 137.587 32.5574C137.699 32.6701 137.857 32.7271 138.06 32.7271H141.416C141.74 32.7271 141.995 32.584 142.178 32.2954L142.757 31.4015C142.839 31.2787 142.965 31.0888 143.138 30.8318C143.312 30.5748 143.453 30.3798 143.566 30.2469C143.678 30.1139 143.774 30.0468 143.856 30.0468C143.997 30.0468 144.47 30.3963 145.274 31.0939C146.078 31.7927 146.652 32.346 146.998 32.7575C147.08 32.86 147.12 32.9841 147.12 33.1272C147.12 33.2703 147.068 33.3842 146.967 33.4665C146.764 33.569 146.559 33.621 146.356 33.621H138.059C137.856 33.621 137.698 33.6779 137.586 33.7906C137.474 33.9033 137.418 34.0628 137.418 34.2679V38.3953C137.418 38.6004 137.474 38.76 137.586 38.8727C137.698 38.9853 137.856 39.0423 138.059 39.0423H140.713C141.038 39.0423 141.303 38.9195 141.507 38.6726L141.508 38.6663ZM141.127 46.4425C141.239 46.3299 141.295 46.1703 141.295 45.9652V40.5439C141.295 40.3388 141.239 40.1792 141.127 40.0666C141.016 39.9539 140.858 39.8969 140.654 39.8969H131.32C131.117 39.8969 130.959 39.9539 130.847 40.0666C130.736 40.1792 130.679 40.3388 130.679 40.5439V45.9652C130.679 46.1703 130.736 46.3299 130.847 46.4425C130.959 46.5552 131.117 46.6122 131.32 46.6122H140.654C140.858 46.6122 141.016 46.5565 141.127 46.4425Z" fill="white"/>
<path d="M50.4673 4.40234L96.4919 18.1342L50.4673 4.40234ZM50.4673 4.40234L0.877747 18.1342" stroke="white" stroke-width="1.5" stroke-linecap="round" stroke-linejoin="round"/>
<path d="M50.4673 0.88623L96.4919 14.6181L50.4673 0.88623ZM50.4673 0.88623L0.877747 14.6181" stroke="white" stroke-width="1.5" stroke-linecap="round" stroke-linejoin="round"/>
<path d="M101.098 4.40234L147.122 18.1342L101.098 4.40234ZM101.098 4.40234L51.5081 18.1342" stroke="white" stroke-width="1.5" stroke-linecap="round" stroke-linejoin="round"/>
<path d="M101.098 0.88623L147.122 14.6181L101.098 0.88623ZM101.098 0.88623L51.5081 14.6181" stroke="white" stroke-width="1.5" stroke-linecap="round" stroke-linejoin="round"/>
</g>
<defs>
<clipPath id="clip0_43_214">
<rect width="148" height="50" fill="white"/>
</clipPath>
</defs>
</svg>
