<?xml version="1.0" encoding="UTF-8"?>
<svg id="_レイヤー_1" data-name="レイヤー 1" xmlns="http://www.w3.org/2000/svg" viewBox="0 0 1180.28 394.92">
  <defs>
    <style>
      .cls-1 {
        fill: none;
        stroke: #000;
        stroke-linecap: round;
        stroke-linejoin: round;
        stroke-width: 14px;
      }
    </style>
  </defs>
  <g>
    <path d="M37.53,193.61c-.89.89-1.34,2.15-1.34,3.77v128.21c.32,17.84.89,35.76,1.7,53.76v1.46c0,1.95-.57,3.49-1.7,4.62-2.11,2.43-5.23,4.58-9.37,6.45-4.14,1.86-8.39,2.8-12.77,2.8-2.11,0-3.81-.49-5.11-1.46-1.3-.97-1.95-2.11-1.95-3.41.65-9.57,1.22-18.85,1.7-27.85.49-9,.81-20.8.97-35.4v-105.1c0-15.89-.73-30.17-2.19-42.82v-.97c0-2.43,1.05-3.65,3.16-3.65.97,0,1.78.16,2.43.49l22.14,9.49c1.78.81,3.81,1.22,6.08,1.22h124.8c2.59,0,4.7-1.05,6.33-3.16l3.41-4.38c.81-.97,1.66-2.03,2.55-3.16.89-1.13,1.78-2.15,2.68-3.04.89-.89,1.66-1.34,2.31-1.34,1.13,0,4.58,2.23,10.34,6.69,5.76,4.46,10.01,8.31,12.77,11.56.81,1.14,1.22,2.03,1.22,2.68,0,1.3-.73,2.43-2.19,3.41-.33.33-.65.57-.97.73-.33.16-.65.33-.97.49-1.46.65-2.55,1.38-3.28,2.19-.73.81-1.09,1.95-1.09,3.41v161.54c0,6.49-.81,11.8-2.43,15.94-1.62,4.14-4.83,7.54-9.61,10.22-4.79,2.68-11.8,4.66-21.04,5.96h-.73c-2.92,0-4.62-1.54-5.11-4.62-1.3-6.33-3.41-10.87-6.33-13.62-5.19-4.05-12.16-6.97-20.92-8.76-3.25-.49-4.87-1.3-4.87-2.43,0-.81,1.78-1.22,5.35-1.22,16.38,1.3,27.25,1.95,32.6,1.95,2.27,0,3.85-.49,4.74-1.46.89-.97,1.34-2.51,1.34-4.62v-162.75c0-1.62-.45-2.88-1.34-3.77-.89-.89-2.15-1.34-3.77-1.34H41.3c-1.62,0-2.88.45-3.77,1.34ZM135.69,244.58l3.65-4.87c.81-.97,1.66-2.07,2.55-3.28.89-1.22,1.78-2.31,2.68-3.28.89-.97,1.66-1.46,2.31-1.46,1.3,0,4.54,2.03,9.73,6.08,5.19,4.06,9,7.54,11.43,10.46.81.81,1.22,1.7,1.22,2.68s-.49,1.87-1.46,2.68c-1.3.81-2.84,1.22-4.62,1.22h-42.57c-1.62,0-2.88.45-3.77,1.34-.89.89-1.34,2.15-1.34,3.77v63.74c0,1.62.44,2.88,1.34,3.77.89.89,2.15,1.34,3.77,1.34h7.06c1.62,0,2.88-.44,3.77-1.34s1.34-2.15,1.34-3.77v-3.16c0-16.38-.73-30.98-2.19-43.79v-.97c0-1.46.49-2.55,1.46-3.28.97-.73,2.35-.85,4.14-.36,16.06,3.89,24.08,6.9,24.08,9,0,.49-.57,1.06-1.7,1.7-2.27,1.46-3.41,3.49-3.41,6.08v12.89c.32,16.22.73,29.03,1.22,38.44v1.46c0,1.95-.73,3.41-2.19,4.38-1.95,1.62-4.62,3-8.03,4.14-3.41,1.14-6.65,1.7-9.73,1.7-1.79,0-3.08-.65-3.89-1.95-.49-.81-.73-1.62-.73-2.43,0-.65.16-1.78.49-3.41l.49-2.92v-.24c0-1.62-.45-2.88-1.34-3.77-.89-.89-2.15-1.34-3.77-1.34h-48.41c-1.62,0-2.88.45-3.77,1.34-.89.89-1.34,2.15-1.34,3.77v.24c.16,1.62.24,3.49.24,5.6v1.95c0,1.95-.57,3.33-1.7,4.14-1.95,1.3-4.5,2.43-7.66,3.41s-6.2,1.46-9.12,1.46c-1.95,0-3.37-.49-4.26-1.46-.89-.97-1.34-2.11-1.34-3.41.65-6.16,1.13-14.11,1.46-23.84v-14.35c0-15.08-.65-27.73-1.95-37.95v-.49c0-2.92,1.3-4.38,3.89-4.38.81,0,1.46.08,1.95.24,15.57,3.89,23.35,6.9,23.35,9,0,.49-.49,1.06-1.46,1.7-2.27,1.46-3.41,3.49-3.41,6.08v34.79c0,1.62.44,2.88,1.34,3.77.89.89,2.15,1.34,3.77,1.34h6.33c1.62,0,2.88-.44,3.77-1.34.89-.89,1.34-2.15,1.34-3.77v-63.74c0-1.62-.45-2.88-1.34-3.77-.89-.89-2.15-1.34-3.77-1.34h-10.7c-7.62.16-15.9,1.06-24.81,2.68h-1.22c-2.43,0-4.14-1.13-5.11-3.41l-.97-1.7c-.49-.97-.73-1.86-.73-2.68,0-2.43,1.62-3.49,4.87-3.16,5.51.49,13.87.89,25.06,1.22h33.33c2.92,0,4.62-.81,5.11-2.43,1.95-6.48,3.57-13.7,4.87-21.65,1.3-7.94,2.11-15.24,2.43-21.9.32-2.92,1.7-4.38,4.14-4.38.97,0,1.7.08,2.19.24,19.46,5.52,29.19,9.33,29.19,11.43,0,.49-.73,1.06-2.19,1.7l-1.22.49c-2.11.97-3.81,2.27-5.11,3.89-7.3,9.73-14.84,18.49-22.62,26.27-1.14,1.14-1.7,2.27-1.7,3.41,0,.81.4,1.5,1.22,2.07.81.57,1.86.85,3.16.85h4.87c2.59,0,4.62-1.05,6.08-3.16ZM60.76,199.81c.16-.16.49-.24.97-.24.32,0,1.54.41,3.65,1.22,9.89,3.89,17.19,8.56,21.9,13.99,4.7,5.44,7.06,10.83,7.06,16.18,0,4.06-1.26,7.5-3.77,10.34-2.52,2.84-5.64,4.26-9.37,4.26-3.08,0-5.92-.97-8.51-2.92-1.79-1.46-2.84-3.57-3.16-6.33-.49-9.57-3.16-20.03-8.03-31.38-1.3-3.08-1.54-4.78-.73-5.11Z"/>
    <path d="M283.49,369.01c-.89.89-1.34,2.15-1.34,3.77v6.57c0,1.13-1.09,2.55-3.28,4.26-2.19,1.7-5.03,3.16-8.51,4.38-3.49,1.22-7.02,1.82-10.58,1.82-2.11,0-3.81-.49-5.11-1.46-1.3-.97-1.95-2.11-1.95-3.41.65-9.57,1.22-18.85,1.7-27.86.49-9,.81-20.8.97-35.4v-92.93c0-15.89-.73-30.17-2.19-42.82v-.97c0-2.43,1.05-3.65,3.16-3.65.97,0,1.78.16,2.43.49l22.87,9.73c1.78.81,3.81,1.22,6.08,1.22h118.96c2.59,0,4.7-.97,6.33-2.92l3.65-4.87c.81-.81,1.82-1.95,3.04-3.41,1.22-1.46,2.19-2.55,2.92-3.28.73-.73,1.42-1.09,2.07-1.09,1.3,0,4.82,2.31,10.58,6.93,5.76,4.62,10.01,8.56,12.77,11.8.81.81,1.22,1.7,1.22,2.68,0,1.14-.65,2.19-1.95,3.16l-2.43,1.22c-2.76,1.3-4.14,3.25-4.14,5.84v111.67c.32,17.68.89,35.52,1.7,53.52v1.22c0,2.27-.81,3.89-2.43,4.87-2.92,1.95-6.53,3.69-10.83,5.23-4.3,1.54-8.23,2.31-11.8,2.31-2.27,0-3.81-.65-4.62-1.95-.49-.65-.73-1.46-.73-2.43,0-.65.16-1.79.49-3.41,0-.33.16-2.11.49-5.35v-1.7c0-1.62-.45-2.88-1.34-3.77-.89-.89-2.15-1.34-3.77-1.34h-120.67c-1.62,0-2.88.45-3.77,1.34ZM331.66,273.89c.89-.89,1.34-2.15,1.34-3.77v-65.44c0-1.62-.45-2.88-1.34-3.77-.89-.89-2.15-1.34-3.77-1.34h-40.63c-1.62,0-2.88.45-3.77,1.34-.89.89-1.34,2.15-1.34,3.77v65.44c0,1.62.44,2.88,1.34,3.77.89.89,2.15,1.34,3.77,1.34h40.63c1.62,0,2.88-.44,3.77-1.34ZM331.66,283.38c-.89-.89-2.15-1.34-3.77-1.34h-40.63c-1.62,0-2.88.45-3.77,1.34-.89.89-1.34,2.15-1.34,3.77v68.36c0,1.62.44,2.88,1.34,3.77.89.89,2.15,1.34,3.77,1.34h40.63c1.62,0,2.88-.44,3.77-1.34s1.34-2.15,1.34-3.77v-68.36c0-1.62-.45-2.88-1.34-3.77ZM411.69,273.89c.89-.89,1.34-2.15,1.34-3.77v-65.44c0-1.62-.45-2.88-1.34-3.77-.89-.89-2.15-1.34-3.77-1.34h-42.57c-1.62,0-2.88.45-3.77,1.34s-1.34,2.15-1.34,3.77v65.44c0,1.62.44,2.88,1.34,3.77.89.89,2.15,1.34,3.77,1.34h42.57c1.62,0,2.88-.44,3.77-1.34ZM361.58,283.38c-.89.89-1.34,2.15-1.34,3.77v68.36c0,1.62.44,2.88,1.34,3.77.89.89,2.15,1.34,3.77,1.34h42.57c1.62,0,2.88-.44,3.77-1.34.89-.89,1.34-2.15,1.34-3.77v-68.36c0-1.62-.45-2.88-1.34-3.77-.89-.89-2.15-1.34-3.77-1.34h-42.57c-1.62,0-2.88.45-3.77,1.34Z"/>
    <path d="M631.98,201.27l5.6-8.03c.65-.97,1.78-2.55,3.41-4.74,1.62-2.19,2.92-3.81,3.89-4.87.97-1.05,1.78-1.58,2.43-1.58,1.3,0,5.55,2.96,12.77,8.88,7.21,5.92,12.29,10.58,15.21,13.99.81.81,1.22,1.7,1.22,2.68s-.49,1.87-1.46,2.68c-1.3.81-2.92,1.22-4.87,1.22h-69.33c-1.62,0-2.88.45-3.77,1.34-.89.89-1.34,2.15-1.34,3.77v145.97c0,1.62.44,2.88,1.34,3.77.89.89,2.15,1.34,3.77,1.34h38.92c2.59,0,4.62-1.05,6.08-3.16l5.84-8.03c.81-1.13,1.98-2.8,3.53-4.99,1.54-2.19,2.8-3.81,3.77-4.87.97-1.05,1.78-1.58,2.43-1.58,1.3,0,5.55,2.96,12.77,8.88,7.21,5.92,12.29,10.58,15.2,13.99.97.97,1.46,1.95,1.46,2.92,0,.81-.49,1.62-1.46,2.43-1.3.81-3,1.22-5.11,1.22h-171.51c-9.9.16-20.6,1.05-32.11,2.68h-1.46c-2.27,0-3.89-1.06-4.87-3.16l-.97-1.7c-.49-.97-.73-1.86-.73-2.68,0-2.43,1.62-3.49,4.87-3.16,5.51.49,13.87.89,25.06,1.22h58.14c1.62,0,2.88-.44,3.77-1.34.89-.89,1.34-2.15,1.34-3.77v-145.97c0-1.62-.45-2.88-1.34-3.77-.89-.89-2.15-1.34-3.77-1.34h-32.36c-9.9.16-20.6,1.06-32.11,2.68h-1.46c-2.27,0-3.89-1.05-4.87-3.16l-.97-1.95c-.49-.97-.73-1.95-.73-2.92s.4-1.74,1.22-2.31c.81-.57,1.95-.77,3.41-.61,5.51.49,13.87.89,25.06,1.22h108.02c2.59,0,4.62-1.05,6.08-3.16Z"/>
    <path d="M897.4,196.65l4.38-6.57c.81-1.13,1.86-2.68,3.16-4.62,1.3-1.95,2.35-3.36,3.16-4.26.81-.89,1.54-1.34,2.19-1.34,1.3,0,4.87,2.64,10.71,7.91,5.84,5.27,9.97,9.53,12.41,12.77.81,1.14,1.22,2.11,1.22,2.92s-.41,1.62-1.22,2.43c-1.3.81-3,1.22-5.11,1.22h-10.46c-2.92,0-4.95,1.3-6.08,3.89-5.84,13.14-13.3,24.49-22.38,34.06-.97,1.14-1.46,2.27-1.46,3.41,0,1.62.97,2.84,2.92,3.65,11.03,4.06,25.06,7.22,42.09,9.49,3.41.49,5.11,1.14,5.11,1.95-.16.65-.69,1.38-1.58,2.19-.89.81-1.42,1.3-1.58,1.46-4.54,4.06-7.54,10.62-9,19.71-.81,3.73-2.84,5.11-6.08,4.14-20.28-6-36.49-14.11-48.66-24.33-1.14-.97-2.43-1.46-3.89-1.46-.97,0-2.03.33-3.16.97-3.25,2.11-6.33,3.98-9.24,5.6-1.62.97-2.43,2.03-2.43,3.16,0,1.62,1.62,2.52,4.87,2.68,11.51,1.14,17.27,2.43,17.27,3.89,0,.49-.65,1.14-1.95,1.95l-.49.49c-2.27,1.46-3.49,3.41-3.65,5.84l-1.46,10.46v1.22c0,2.92,1.54,4.38,4.62,4.38h16.3c2.43,0,4.46-.89,6.08-2.68l3.65-3.89c.97-.81,2.31-2.11,4.01-3.89,1.7-1.78,3.04-2.68,4.01-2.68,1.3,0,4.42,1.99,9.37,5.96,4.95,3.98,8.72,7.5,11.31,10.58.81,1.14,1.22,2.11,1.22,2.92,0,1.46-.81,2.52-2.43,3.16l-1.46.73c-1.46.49-2.55,1.18-3.28,2.07-.73.89-1.18,2.07-1.34,3.53-1.3,18.82-3.37,33.37-6.2,43.67-2.84,10.3-6.85,17.39-12.04,21.29-5.84,4.38-13.38,6.81-22.62,7.3h-.73c-2.76,0-4.3-1.62-4.62-4.87-.33-5.68-1.7-9.89-4.14-12.65-2.76-3.08-7.71-5.51-14.84-7.3-2.92-.97-4.38-1.95-4.38-2.92,0-1.13,1.78-1.54,5.35-1.22,10.38.65,17.52.97,21.41.97,1.95,0,3.44-.12,4.5-.36,1.05-.24,1.98-.69,2.8-1.34,4.38-3.89,7.54-19.22,9.49-45.98v-.97c0-3.08-1.62-4.62-4.87-4.62h-18.98c-2.92,0-4.79,1.46-5.59,4.38-4.54,17.36-12.57,32.44-24.08,45.25-11.52,12.81-28.87,23.03-52.06,30.65-2.92.97-4.71.97-5.35,0-.16-.16-.24-.41-.24-.73,0-.81,1.3-2.03,3.89-3.65,14.76-8.11,26.15-18.12,34.18-30.04,8.03-11.92,13.66-25.34,16.91-40.26.16-.32.24-.89.24-1.7,0-2.59-1.54-3.89-4.62-3.89h-7.54c-6.65.33-12.98,1.14-18.98,2.43l-1.46.24c-2.27,0-3.98-1.13-5.11-3.41l-.73-1.46c-.49-.97-.73-1.95-.73-2.92s.4-1.74,1.22-2.31c.81-.57,1.95-.77,3.41-.61,4.87.49,12.32.89,22.38,1.22h9.25c3.24,0,5.02-1.62,5.35-4.87.81-5.19,1.3-10.38,1.46-15.57v-.49c0-1.3-.33-2.31-.97-3.04-.65-.73-1.46-1.09-2.43-1.09s-1.79.16-2.43.49c-9.89,4.38-20.76,8.03-32.6,10.95-.81.33-1.87.49-3.16.49s-2.03-.32-2.19-.97v-.24c0-.49.36-1.01,1.09-1.58.73-.57,1.74-1.09,3.04-1.58,20.27-8.59,37.46-19.71,51.58-33.33,1.3-1.3,1.95-2.51,1.95-3.65,0-1.3-.49-2.51-1.46-3.65-4.71-6.65-9.25-14.51-13.62-23.6-.97-1.95-2.19-2.92-3.65-2.92-.81,0-1.87.49-3.16,1.46-6.17,5.19-11.52,9.33-16.06,12.41-1.62,1.14-2.43,2.35-2.43,3.65s.65,2.52,1.95,3.65c7.62,6.98,11.43,11.52,11.43,13.62,0,.97-.89,1.62-2.68,1.95l-.97.24c-2.43.49-4.38,1.46-5.84,2.92-3.57,3.89-7.91,7.87-13.02,11.92-5.11,4.06-10.1,7.46-14.96,10.22-2.27,1.62-3.81,2.03-4.62,1.22-.33-.32-.49-.73-.49-1.22,0-.32.32-1.62.97-3.89,3.57-10.05,5.84-16.7,6.81-19.95.16-.49.24-1.05.24-1.7,0-2.59-1.54-3.89-4.62-3.89h-2.43c-1.62,0-2.88.45-3.77,1.34-.89.89-1.34,2.15-1.34,3.77v100.96c0,10.06-1.87,17.84-5.6,23.35-3.73,5.51-11.27,9.08-22.62,10.7l-1.46.24c-2.43,0-3.89-1.62-4.38-4.87-.81-6.65-2.35-11.6-4.62-14.84-3.08-3.89-8.27-6.65-15.57-8.27-3.08-.81-4.62-1.7-4.62-2.68,0-.32.49-.65,1.46-.97.97-.32,2.27-.4,3.89-.24,11.84.81,19.46,1.22,22.87,1.22,1.95,0,3.28-.36,4.01-1.09.73-.73,1.09-1.82,1.09-3.28v-44.76c0-2.92-.81-4.38-2.43-4.38-1.3,0-2.52.81-3.65,2.43-9.08,12.16-19.22,22.87-30.41,32.11-2.43,2.11-4.14,2.68-5.11,1.7-.33-.32-.49-.73-.49-1.22,0-.97.65-2.35,1.95-4.14,7.46-10.7,14.11-23.11,19.95-37.22,5.84-14.11,10.62-28.87,14.35-44.28l.24-1.46c0-1.3-.45-2.31-1.34-3.04-.89-.73-2.07-1.09-3.53-1.09h-5.35c-5.19.33-10.22,1.06-15.08,2.19-.49.16-1.14.24-1.95.24-1.95,0-3.49-1.05-4.62-3.16l-.97-1.7c-.49-.97-.73-1.86-.73-2.68,0-2.43,1.62-3.49,4.87-3.16,5.51.49,13.87.89,25.06,1.22h12.16c2.27,0,3.97-.16,5.11-.49,1.13-.32,1.38-.81.73-1.46-.65-.65-1.22-1.62-1.7-2.92-2.27-5.02-5.44-10.3-9.49-15.81-4.06-5.51-8.27-10.54-12.65-15.08-.97-1.13-1.74-2.11-2.31-2.92-.57-.81-.69-1.38-.37-1.7.65-.32,1.38-.49,2.19-.49.97,0,1.78.08,2.43.24,9.4.97,17.52,3,24.33,6.08.97.49,1.86.73,2.68.73,1.62,0,3-.97,4.14-2.92l7.3-14.6c.49-.97.73-1.86.73-2.68,0-2.27-1.54-3.41-4.62-3.41h-16.06c-10.22.16-20.92,1.06-32.11,2.68h-1.22c-2.43,0-4.22-1.05-5.35-3.16l-.97-1.7c-.49-.97-.73-1.95-.73-2.92s.4-1.74,1.22-2.31c.81-.57,1.95-.77,3.41-.61,5.51.49,13.87.89,25.06,1.22h29.68c2.43,0,4.46-.89,6.08-2.68l4.14-4.62c.97-.97,2.39-2.47,4.26-4.5,1.86-2.03,3.28-3.04,4.26-3.04,1.13,0,4.38,2.6,9.73,7.78,5.35,5.19,9.32,9.57,11.92,13.14.65.81.97,1.7.97,2.68,0,1.46-.81,2.43-2.43,2.92-.97.33-1.79.49-2.43.49-2.6.49-4.62,1.3-6.08,2.43-9.89,7.46-19.46,13.71-28.71,18.73-1.79.97-2.68,2.11-2.68,3.41,0,.97.49,2.11,1.46,3.41,2.92,3.89,4.38,7.87,4.38,11.92,0,2.76-.65,5.27-1.95,7.54-.97,1.46-1.46,2.52-1.46,3.16,0,.97,1.05,1.46,3.16,1.46h5.35c2.43,0,4.46-.89,6.08-2.68l7.05-7.54c2.27-2.59,3.89-3.41,4.87-2.43l.49.24c1.13,0,2.43-1.22,3.89-3.65,3.41-5.19,6.33-10.46,8.76-15.81,2.92-6,5.63-13.22,8.15-21.65,2.51-8.43,4.26-16.14,5.23-23.11.32-2.76,1.62-4.14,3.89-4.14.97,0,1.78.16,2.43.49,18.81,6.65,28.22,11.03,28.22,13.14,0,.49-.73,1.06-2.19,1.7l-1.22.49c-2.27.97-3.98,2.43-5.11,4.38l-4.38,7.78c-.65.81-.97,1.79-.97,2.92,0,2.11,1.46,3.16,4.38,3.16h31.87c2.59,0,4.62-1.13,6.08-3.41ZM881.34,210.76c0-1.13-.41-2.03-1.22-2.68-.81-.65-1.95-.97-3.41-.97h-25.79c-2.43,0-4.54.97-6.33,2.92l-.49.73c-.97,1.14-1.46,2.43-1.46,3.89,0,1.14.4,2.19,1.22,3.16,5.84,7.63,11.92,13.87,18.25,18.73,1.3.97,2.43,1.46,3.41,1.46,1.3,0,2.59-.89,3.89-2.68,4.38-6.48,8.19-13.95,11.43-22.38.32-.97.49-1.7.49-2.19Z"/>
    <path d="M1135.81,201.03l4.87-7.54c.81-1.3,1.95-3,3.41-5.11,1.46-2.11,2.59-3.65,3.41-4.62.81-.97,1.54-1.46,2.19-1.46,1.13,0,5.07,2.88,11.8,8.64,6.73,5.76,11.47,10.34,14.23,13.75.65.81.97,1.7.97,2.68,0,1.14-.49,2.11-1.46,2.92-1.3.81-2.92,1.22-4.87,1.22h-158.37c-1.62,0-2.88.45-3.77,1.34-.89.89-1.34,2.15-1.34,3.77v48.66c0,17.03-.89,32.52-2.68,46.47-1.79,13.95-5.88,27.98-12.29,42.09-6.41,14.11-15.94,26.6-28.59,37.46-2.27,1.78-3.81,2.43-4.62,1.95-.33-.33-.49-.73-.49-1.22,0-.65.49-1.95,1.46-3.89,8.59-16.38,14.19-34.38,16.79-54.01,2.59-19.62,3.89-42.57,3.89-68.85v-36.25c0-11.03-.49-21.17-1.46-30.41v-.49c0-2.92,1.05-4.38,3.16-4.38.97,0,1.78.16,2.43.49l23.84,9c1.78.81,3.81,1.22,6.08,1.22h41.11c3.41,0,5.11-1.7,5.11-5.11-.33-11.51-.89-21-1.7-28.46v-.49c0-1.78.52-3.04,1.58-3.77,1.05-.73,2.47-.85,4.26-.37,19.14,4.06,28.71,7.22,28.71,9.49,0,.65-.57,1.38-1.7,2.19l-.97.73c-2.11,1.62-3.16,3.65-3.16,6.08v14.6c0,1.62.45,2.88,1.34,3.77.89.89,2.15,1.34,3.77,1.34h36.98c2.59,0,4.62-1.13,6.08-3.41ZM1128.51,305.4l3.41-4.38c.81-.97,1.66-2.03,2.55-3.16.89-1.13,1.78-2.15,2.68-3.04.89-.89,1.66-1.34,2.31-1.34,1.3,0,4.46,1.91,9.49,5.72,5.03,3.81,8.84,7.18,11.43,10.1.81,1.14,1.22,2.03,1.22,2.68,0,1.3-.73,2.35-2.19,3.16l-1.22.73c-1.46.65-2.55,1.38-3.28,2.19-.73.81-1.1,1.95-1.1,3.41v18.98c.49,18.65.97,32.44,1.46,41.36v.97c0,2.43-.89,4.22-2.68,5.35-5.84,3.24-12.89,4.87-21.17,4.87-2.43,0-4.06-.65-4.87-1.95-.49-.65-.73-1.46-.73-2.43,0-.65.16-1.79.49-3.41l.49-4.14v-.97c0-1.62-.45-2.88-1.34-3.77-.89-.89-2.15-1.34-3.77-1.34h-74.44c-1.62,0-2.88.2-3.77.61-.89.4-1.34.93-1.34,1.58l.24,4.14v3.65c0,2.11-.57,3.65-1.7,4.62-1.79,1.46-4.34,2.68-7.66,3.65-3.33.97-7.18,1.46-11.56,1.46-4.06,0-6.08-1.62-6.08-4.87.65-7.46,1.13-16.71,1.46-27.73v-16.54c0-15.89-.73-30.25-2.19-43.06v-.97c0-2.43,1.05-3.65,3.16-3.65.32,0,1.13.16,2.43.49l21.65,8.76c1.78.81,3.81,1.22,6.08,1.22h15.33c1.62,0,2.88-.44,3.77-1.34.89-.89,1.34-2.15,1.34-3.77v-36.49c0-16.38-.73-30.98-2.19-43.79v-.97c0-1.46.49-2.55,1.46-3.28.97-.73,2.35-.93,4.14-.61,20.11,4.22,30.17,7.46,30.17,9.73,0,.65-.65,1.38-1.95,2.19l-.73.49c-2.27,1.46-3.41,3.49-3.41,6.08v16.79c0,1.62.45,2.88,1.34,3.77.89.89,2.15,1.34,3.77,1.34h26.76c2.59,0,4.62-1.13,6.08-3.41l4.62-7.06c.65-.97,1.66-2.47,3.04-4.5,1.38-2.03,2.51-3.57,3.41-4.62.89-1.05,1.66-1.58,2.31-1.58,1.13,0,4.9,2.76,11.31,8.27,6.41,5.52,10.99,9.89,13.75,13.14.65.81.97,1.79.97,2.92s-.41,2.03-1.22,2.68c-1.62.81-3.25,1.22-4.87,1.22h-66.17c-1.62,0-2.88.45-3.77,1.34-.89.89-1.34,2.15-1.34,3.77v32.6c0,1.62.45,2.88,1.34,3.77.89.89,2.15,1.34,3.77,1.34h21.17c2.59,0,4.7-.97,6.33-2.92ZM1125.47,366.82c.89-.89,1.34-2.15,1.34-3.77v-42.82c0-1.62-.45-2.88-1.34-3.77-.89-.89-2.15-1.34-3.77-1.34h-74.44c-1.62,0-2.88.45-3.77,1.34-.89.89-1.34,2.15-1.34,3.77v42.82c0,1.62.45,2.88,1.34,3.77.89.89,2.15,1.34,3.77,1.34h74.44c1.62,0,2.88-.44,3.77-1.34Z"/>
  </g>
  <g>
    <polyline class="cls-1" points="402.47 34.77 769.51 143.23 402.47 34.77 7 143.23"/>
    <polyline class="cls-1" points="402.47 7 769.51 115.46 402.47 7 7 115.46"/>
    <polyline class="cls-1" points="806.24 34.77 1173.28 143.23 806.24 34.77 410.77 143.23"/>
    <polyline class="cls-1" points="806.24 7 1173.28 115.46 806.24 7 410.77 115.46"/>
  </g>
</svg>